# xmcd
#
# Track frame offsets: 
#        150
#        4885
#        22552
#        43610
#        67067
#        87712
#        105252
#        130365
#        169130
#        183595
#        189150
#        189450
#        189750
#
# Disc length: 3600 seconds
#
# Revision: 23
# Processed by: cddbd v1.5.2PL0 Copyright (c) Steve Scherf et al.
# Submitted via: ExactAudioCopyFreeDBPlugin 1.0
#
DISCID=a20e0e0d
DTITLE=BUMP OF CHICKEN - THE LIVING DEAD
DYEAR=2001
DGENRE=Rock
TTITLE0=Opening
TTITLE1=グングニル
TTITLE2=ベストピクチャー
TTITLE3=続・くだらない唄
TTITLE4=ランプ
TTITLE5=K
TTITLE6=リリィ
TTITLE7=Ever lasting lie
TTITLE8=グロリアスレボリューション
TTITLE9=Ending
TTITLE10=[Blank]
TTITLE11=[Blank]
TTITLE12=THE LIVING DEAD
EXTD=YEAR: 2001
EXTT0=
EXTT1=
EXTT2=
EXTT3=
EXTT4=
EXTT5=
EXTT6=
EXTT7=
EXTT8=
EXTT9=
EXTT10=
EXTT11=
EXTT12=
PLAYORDER=
